<?xml version="1.0" standalone="no"?><!DOCTYPE svg PUBLIC "-//W3C//DTD SVG 1.1//EN" "http://www.w3.org/Graphics/SVG/1.1/DTD/svg11.dtd"><svg t="1637745060926" class="icon" viewBox="0 0 1024 1024" version="1.1" xmlns="http://www.w3.org/2000/svg" p-id="2375" xmlns:xlink="http://www.w3.org/1999/xlink" width="200" height="200"><defs><style type="text/css"></style></defs><path d="M25.4619 580.646456l419.617168 417.952782a86.964138 86.964138 0 0 0 122.748423 0l412.67156-407.390336c43.370043-43.242013 43.370043-138.111982 43.370043-158.500703V86.964138C1023.869094 39.209079 989.141052 0 941.225957 0L575.477263 0.512119c-57.8694 0-101.239443 14.403335-144.641494 57.645348L25.4619 458.378143a86.227967 86.227967 0 0 0 0 122.268313z" fill="#26A6D1" p-id="2376"></path><path d="M815.820917 288.13072c-44.138221 0-80.018529-35.880309-80.018529-80.018529s35.880309-80.018529 80.018529-80.018529 80.018529 35.912316 80.01853 80.018529c0 44.138221-35.880309 80.018529-80.01853 80.018529z" fill="#156E8D" p-id="2377"></path><path d="M579.158115 265.181406a31.751352 31.751352 0 0 0-44.938406 0l-269.470399 269.438392a31.751352 31.751352 0 1 0 44.906399 44.938406l269.502406-269.502407a31.78336 31.78336 0 0 0 0-44.874391z m89.78079 89.812797a31.719345 31.719345 0 0 0-44.906399 0l-269.470399 269.4704a31.751352 31.751352 0 1 0 44.906399 44.938406l269.470399-269.502407a31.719345 31.719345 0 0 0 0-44.906399z m89.844805 89.812798a31.78336 31.78336 0 0 0-44.906399 0l-269.502407 269.470399a31.751352 31.751352 0 1 0 44.938406 44.874391l269.4704-269.438392a31.719345 31.719345 0 0 0 0-44.906398z" fill="#93D3E8" p-id="2378"></path><path d="M815.820917 160.101073a48.011118 48.011118 0 1 1 0 96.022236 48.011118 48.011118 0 0 1 0-96.022236z" fill="#FFFFFF" p-id="2379"></path></svg>