<?xml version="1.0" standalone="no"?><!DOCTYPE svg PUBLIC "-//W3C//DTD SVG 1.1//EN" "http://www.w3.org/Graphics/SVG/1.1/DTD/svg11.dtd"><svg t="1638623360551" class="icon" viewBox="0 0 1024 1024" version="1.1" xmlns="http://www.w3.org/2000/svg" p-id="3340" xmlns:xlink="http://www.w3.org/1999/xlink" width="200" height="200"><defs><style type="text/css"></style></defs><path d="M512.839219 1023.957335c-13.652764 0-25.556268-5.119787-35.795842-15.316695L15.366613 547.68918c-20.436482-20.393817-20.436482-52.733803 0-71.421025L477.043377 15.316695c20.479147-20.436482 52.819133-20.436482 71.591684 0 20.436482 20.393817 20.436482 52.733803 0 71.421024L122.668809 511.978668l425.966252 425.240948c20.436482 20.393817 20.436482 52.733803 0 71.421024-10.239573 10.239573-22.185742 15.316695-35.795842 15.316695z" fill="#172B4D" p-id="3341"></path><path d="M972.852051 563.005875H51.11979A50.173909 50.173909 0 0 1 0.007253 511.978668c0-28.926795 22.185742-51.027207 51.112537-51.027208h921.732261c28.96946 0 51.112537 22.100412 51.112537 51.027208 0 28.926795-22.185742 51.027207-51.112537 51.027207z" fill="#172B4D" p-id="3342"></path></svg>