<?xml version="1.0" standalone="no"?><!DOCTYPE svg PUBLIC "-//W3C//DTD SVG 1.1//EN" "http://www.w3.org/Graphics/SVG/1.1/DTD/svg11.dtd"><svg t="1638604261609" class="icon" viewBox="0 0 1024 1024" version="1.1" xmlns="http://www.w3.org/2000/svg" p-id="2509" xmlns:xlink="http://www.w3.org/1999/xlink" width="200" height="200"><defs><style type="text/css"></style></defs><path d="M405.810516 1023.999786a42.818306 42.818306 0 0 1-30.186905-73.005212l438.887635-438.887635-438.887635-439.101727a42.818306 42.818306 0 0 1 0-60.373812 42.818306 42.818306 0 0 1 60.373811 0L905.286055 481.705942a42.818306 42.818306 0 0 1 12.6314 30.400997 42.818306 42.818306 0 0 1-12.6314 30.186905L435.997422 1011.582477a42.818306 42.818306 0 0 1-30.186906 12.417309z" fill="#3A3A3A" p-id="2510"></path><path d="M148.900681 1023.999786a42.818306 42.818306 0 0 1-30.186906-73.005212l438.887636-438.887635L118.713775 73.005212a42.818306 42.818306 0 0 1 0-60.373812 42.818306 42.818306 0 0 1 60.373812 0L648.376219 481.705942a42.818306 42.818306 0 0 1 12.631401 30.400997 42.818306 42.818306 0 0 1-12.631401 30.186905L179.087587 1011.582477a42.818306 42.818306 0 0 1-30.186906 12.417309z" fill="#3A3A3A" p-id="2511"></path></svg>